<?xml version="1.0" encoding="UTF-8"?>
<svg width="54px" height="40px" viewBox="0 0 54 40" version="1.1" xmlns="http://www.w3.org/2000/svg" xmlns:xlink="http://www.w3.org/1999/xlink">
    <!-- Generator: Sketch 52.5 (67469) - http://www.bohemiancoding.com/sketch -->
    <title>icon-medi</title>
    <desc>Created with Sketch.</desc>
    <g id="v2" stroke="none" stroke-width="1" fill="none" fill-rule="evenodd">
        <g id="Landing-Desktop" transform="translate(-710.000000, -1077.000000)" fill="#FFFFFF" fill-rule="nonzero">
            <g id="projects" transform="translate(0.000000, 700.000000)">
                <g id="container" transform="translate(100.000000, 102.000000)">
                    <g id="cards" transform="translate(0.000000, 108.000000)">
                        <g id="proj-3" transform="translate(570.000000, 0.000000)">
                            <path d="M53,167 C59.542,167 64.9554,171.83228 65.8654,178.12214 C64.6578,178.94636 63.5554,179.91382 62.5832,181 L58.98242,181 C58.95386,181.81256 58.89086,182.60424 58.79664,183.36822 C57.7024,183.62438 56.65772,184.00878 55.67896,184.50488 C55.84156,183.43304 55.94776,182.25036 55.9851,181 L50.0149,181 C50.10108,183.8949 50.55786,186.4267 51.2246,188.0612 C50.18604,189.312 49.36084,190.7462 48.80542,192.3084 C43.68384,190.5636 40,185.71198 40,180 C40,172.82032 45.82032,167 53,167 Z M58.98242,179 L62.9506,179 C62.5986,175.45458 60.395,172.45386 57.32032,170.97876 C58.2605,173.09204 58.8733,175.89344 58.98242,179 Z M50.0149,179 L55.9851,179 C55.83448,173.94672 54.55542,170 53,170 C51.44458,170 50.16552,173.94672 50.0149,179 Z M47.01758,181 L43.04932,181 C43.40136,184.54542 45.60498,187.5462 48.67968,189.0212 C47.7395,186.90796 47.1267,184.10656 47.01758,181 Z M47.01758,179 C47.1267,175.89344 47.7395,173.09204 48.67968,170.97876 C45.60498,172.45386 43.40136,175.45458 43.04932,179 L47.01758,179 Z M86,206.9292 L86,207 L76,207 L62,207 C56.47706,207 52,202.5228 52,197 C52,191.47718 56.47706,187 62,187 C62.44312,187 62.8794,187.02886 63.30738,187.08472 C65.53686,182.3092 70.38208,179 76,179 C83.732,179 90,185.268 90,193 C90,193.22332 89.9946,193.4455 89.9844,193.66626 C92.3576,194.78656 94,197.20148 94,200 C94,203.866 90.866,207 87,207 C86.6604,207 86.3266,206.9758 86,206.9292 Z" id="icon-medi"></path>
                        </g>
                    </g>
                </g>
            </g>
        </g>
    </g>
</svg>