<?xml version="1.0" encoding="UTF-8"?>
<svg width="40px" height="40px" viewBox="0 0 40 40" version="1.1" xmlns="http://www.w3.org/2000/svg" xmlns:xlink="http://www.w3.org/1999/xlink">
    <!-- Generator: Sketch 52.5 (67469) - http://www.bohemiancoding.com/sketch -->
    <title>icon-carebit</title>
    <desc>Created with Sketch.</desc>
    <g id="v2" stroke="none" stroke-width="1" fill="none" fill-rule="evenodd">
        <g id="Landing-Desktop" transform="translate(-140.000000, -1737.000000)" fill="#FFFFFF" fill-rule="nonzero">
            <g id="projects" transform="translate(0.000000, 700.000000)">
                <g id="container" transform="translate(100.000000, 102.000000)">
                    <g id="cards" transform="translate(0.000000, 108.000000)">
                        <g id="proj-2" transform="translate(0.000000, 660.000000)">
                            <path d="M57.8947368,207 C57.3133845,207 56.8421053,206.528721 56.8421053,205.947368 C56.8421053,205.366016 57.3133845,204.894737 57.8947368,204.894737 C58.4760892,204.894737 58.9473684,205.366016 58.9473684,205.947368 C58.9473684,206.528721 58.4760892,207 57.8947368,207 Z M62.6315789,204.894737 C61.7595504,204.894737 61.0526316,204.187818 61.0526316,203.315789 C61.0526316,202.443761 61.7595504,201.736842 62.6315789,201.736842 C63.5036075,201.736842 64.2105263,202.443761 64.2105263,203.315789 C64.2105263,204.187818 63.5036075,204.894737 62.6315789,204.894737 Z M66.8421053,202.789474 C65.9700767,202.789474 65.2631579,202.082555 65.2631579,201.210526 C65.2631579,200.338498 65.9700767,199.631579 66.8421053,199.631579 C67.7141338,199.631579 68.4210526,200.338498 68.4210526,201.210526 C68.4210526,202.082555 67.7141338,202.789474 66.8421053,202.789474 Z M70.5263158,199.631579 C69.3636111,199.631579 68.4210526,198.689021 68.4210526,197.526316 C68.4210526,196.363611 69.3636111,195.421053 70.5263158,195.421053 C71.6890205,195.421053 72.6315789,196.363611 72.6315789,197.526316 C72.6315789,198.689021 71.6890205,199.631579 70.5263158,199.631579 Z M74.7368421,194.368421 C73.5741374,194.368421 72.6315789,193.425863 72.6315789,192.263158 C72.6315789,191.100453 73.5741374,190.157895 74.7368421,190.157895 C75.8995468,190.157895 76.8421053,191.100453 76.8421053,192.263158 C76.8421053,193.425863 75.8995468,194.368421 74.7368421,194.368421 Z M77.3684211,189.105263 C75.9150401,189.105263 74.7368421,187.927065 74.7368421,186.473684 C74.7368421,185.020303 75.9150401,183.842105 77.3684211,183.842105 C78.821802,183.842105 80,185.020303 80,186.473684 C80,187.927065 78.821802,189.105263 77.3684211,189.105263 Z M77.3684211,182.789474 C75.9150401,182.789474 74.7368421,181.611276 74.7368421,180.157895 C74.7368421,178.704514 75.9150401,177.526316 77.3684211,177.526316 C78.821802,177.526316 80,178.704514 80,180.157895 C80,181.611276 78.821802,182.789474 77.3684211,182.789474 Z M74.2105263,176.473684 C71.5944407,176.473684 69.4736842,174.352928 69.4736842,171.736842 C69.4736842,169.120756 71.5944407,167 74.2105263,167 C76.826612,167 78.9473684,169.120756 78.9473684,171.736842 C78.9473684,174.352928 76.826612,176.473684 74.2105263,176.473684 Z M67.3684211,178.578947 C66.2057163,178.578947 65.2631579,177.636389 65.2631579,176.473684 C65.2631579,175.310979 66.2057163,174.368421 67.3684211,174.368421 C68.5311258,174.368421 69.4736842,175.310979 69.4736842,176.473684 C69.4736842,177.636389 68.5311258,178.578947 67.3684211,178.578947 Z M62.6315789,180.684211 C61.7595504,180.684211 61.0526316,179.977292 61.0526316,179.105263 C61.0526316,178.233235 61.7595504,177.526316 62.6315789,177.526316 C63.5036075,177.526316 64.2105263,178.233235 64.2105263,179.105263 C64.2105263,179.977292 63.5036075,180.684211 62.6315789,180.684211 Z M59.4736842,183.842105 C58.6016557,183.842105 57.8947368,183.135186 57.8947368,182.263158 C57.8947368,181.391129 58.6016557,180.684211 59.4736842,180.684211 C60.3457128,180.684211 61.0526316,181.391129 61.0526316,182.263158 C61.0526316,183.135186 60.3457128,183.842105 59.4736842,183.842105 Z M56.3157895,180.684211 C55.4437609,180.684211 54.7368421,179.977292 54.7368421,179.105263 C54.7368421,178.233235 55.4437609,177.526316 56.3157895,177.526316 C57.187818,177.526316 57.8947368,178.233235 57.8947368,179.105263 C57.8947368,179.977292 57.187818,180.684211 56.3157895,180.684211 Z M51.5263158,178.578947 C50.3636111,178.578947 49.4736842,177.636389 49.4736842,176.473684 C49.4736842,175.310979 50.4162426,174.368421 51.5789474,174.368421 C52.7416521,174.368421 53.6842105,175.310979 53.6842105,176.473684 C53.6842105,177.636389 52.6890205,178.578947 51.5263158,178.578947 Z M44.2105263,177.526316 C41.8851168,177.526316 40,175.641199 40,173.315789 C40,170.99038 41.8851168,169.105263 44.2105263,169.105263 C46.5359358,169.105263 48.4210526,170.99038 48.4210526,173.315789 C48.4210526,175.641199 46.5359358,177.526316 44.2105263,177.526316 Z M42.1052632,182.789474 C40.9425584,182.789474 40,181.846915 40,180.684211 C40,179.521506 40.9425584,178.578947 42.1052632,178.578947 C43.2679679,178.578947 44.2105263,179.521506 44.2105263,180.684211 C44.2105263,181.846915 43.2679679,182.789474 42.1052632,182.789474 Z M43.1578947,189.105263 C41.99519,189.105263 41.0526316,188.162705 41.0526316,187 C41.0526316,185.837295 41.99519,184.894737 43.1578947,184.894737 C44.3205995,184.894737 45.2631579,185.837295 45.2631579,187 C45.2631579,188.162705 44.3205995,189.105263 43.1578947,189.105263 Z M45.2631579,195.421053 C44.1004532,195.421053 43.1578947,194.478494 43.1578947,193.315789 C43.1578947,192.153085 44.1004532,191.210526 45.2631579,191.210526 C46.4258626,191.210526 47.3684211,192.153085 47.3684211,193.315789 C47.3684211,194.478494 46.4258626,195.421053 45.2631579,195.421053 Z M50,199.631579 C49.1279714,199.631579 48.4210526,198.92466 48.4210526,198.052632 C48.4210526,197.180603 49.1279714,196.473684 50,196.473684 C50.8720286,196.473684 51.5789474,197.180603 51.5789474,198.052632 C51.5789474,198.92466 50.8720286,199.631579 50,199.631579 Z M54.2105263,201.736842 C53.3384978,201.736842 52.6315789,201.029923 52.6315789,200.157895 C52.6315789,199.285866 53.3384978,198.578947 54.2105263,198.578947 C55.0825549,198.578947 55.7894737,199.285866 55.7894737,200.157895 C55.7894737,201.029923 55.0825549,201.736842 54.2105263,201.736842 Z" id="icon-carebit"></path>
                        </g>
                    </g>
                </g>
            </g>
        </g>
    </g>
</svg>