<?xml version="1.0" encoding="UTF-8"?>
<svg width="40px" height="40px" viewBox="0 0 40 40" version="1.1" xmlns="http://www.w3.org/2000/svg" xmlns:xlink="http://www.w3.org/1999/xlink">
    <!-- Generator: Sketch 52.5 (67469) - http://www.bohemiancoding.com/sketch -->
    <title>icon-zuke</title>
    <desc>Created with Sketch.</desc>
    <g id="v2" stroke="none" stroke-width="1" fill="none" fill-rule="evenodd">
        <g id="Landing-Desktop" transform="translate(-140.000000, -1242.000000)" fill="#FFFFFF" fill-rule="nonzero">
            <g id="projects" transform="translate(0.000000, 700.000000)">
                <g id="container" transform="translate(100.000000, 102.000000)">
                    <g id="cards" transform="translate(0.000000, 108.000000)">
                        <g id="proj-1">
                            <path d="M70.3981252,332 L80,341.606903 L70.3986908,341.606903 L70.3981252,332 Z M50.3942192,332.007805 L68.7978127,332.007805 L68.7978127,343.206752 L80,343.206752 L80,365.604646 L53.5948442,365.604646 L53.5948442,333.607655 L51.9948496,333.607655 L52.0006853,363.197645 C52.0006853,366.778432 52.2159221,371.734406 46.6322412,371.982473 C41.425836,372.208968 40,370.213293 40,367.560059 C40,365.478457 41.0532841,363.377439 45.5590343,363.204871 C47.9412611,363.107802 50.3942192,363.204871 50.3942192,363.204871 L50.3942192,332.007805 Z M58.3957816,340.007053 L58.3957816,341.606903 L63.9968753,341.606903 L63.9968753,340.007053 L58.3957816,340.007053 Z M58.3957816,348.006301 L58.3957816,349.60615 L75.1990642,349.60615 L75.1990642,348.006301 L58.3957816,348.006301 Z M58.3957816,356.005548 L58.3957816,357.605398 L75.1990642,357.605398 L75.1990642,356.005548 L58.3957816,356.005548 Z" id="icon-zuke"></path>
                        </g>
                    </g>
                </g>
            </g>
        </g>
    </g>
</svg>