<?xml version="1.0" encoding="UTF-8"?>
<svg width="40px" height="40px" viewBox="0 0 40 40" version="1.1" xmlns="http://www.w3.org/2000/svg" xmlns:xlink="http://www.w3.org/1999/xlink">
    <!-- Generator: Sketch 50.2 (55047) - http://www.bohemiancoding.com/sketch -->
    <title>social-linkedin</title>
    <desc>Created with Sketch.</desc>
    <defs></defs>
    <g id="Landing" stroke="none" stroke-width="1" fill="none" fill-rule="evenodd">
        <g id="MVP" transform="translate(-714.000000, -549.000000)" fill="#FFFFFE">
            <g id="socials" transform="translate(354.000000, 549.000000)">
                <path d="M394.086502,34.0853913 L388.154115,34.0853913 L388.154115,24.8018001 C388.154115,22.5884052 388.116337,19.7405483 385.071808,19.7405483 C381.983944,19.7405483 381.51282,22.1528376 381.51282,24.6440179 L381.51282,34.0853913 L375.5871,34.0853913 L375.5871,14.9959721 L381.273924,14.9959721 L381.273924,17.6060446 L381.356149,17.6060446 C382.147282,16.1048918 384.082891,14.5226256 386.968527,14.5226256 C392.976472,14.5226256 394.086502,18.4749576 394.086502,23.6162116 L394.086502,34.0853913 Z M368.898025,12.3881219 C366.992416,12.3881219 365.455707,10.846968 365.455707,8.94691519 C365.455707,7.04797355 366.992416,5.50681963 368.898025,5.50681963 C370.795855,5.50681963 372.335898,7.04797355 372.335898,8.94691519 C372.335898,10.846968 370.795855,12.3881219 368.898025,12.3881219 Z M365.926831,34.0853913 L371.865885,34.0853913 L371.865885,14.9959721 L365.926831,14.9959721 L365.926831,34.0853913 Z M397.041029,0 L362.950082,0 C361.322259,0 360,1.29114698 360,2.88452457 L360,37.1143643 C360,38.7077419 361.322259,40.0011111 362.950082,40.0011111 L397.041029,40.0011111 C398.672185,40.0011111 400,38.7077419 400,37.1143643 L400,2.88452457 C400,1.29114698 398.672185,0 397.041029,0 Z" id="social-linkedin"></path>
            </g>
        </g>
    </g>
</svg>