<?xml version="1.0" encoding="UTF-8"?>
<svg width="40px" height="40px" viewBox="0 0 40 40" version="1.1" xmlns="http://www.w3.org/2000/svg" xmlns:xlink="http://www.w3.org/1999/xlink">
    <!-- Generator: Sketch 50.2 (55047) - http://www.bohemiancoding.com/sketch -->
    <title>social-dribbble</title>
    <desc>Created with Sketch.</desc>
    <defs></defs>
    <g id="Landing" stroke="none" stroke-width="1" fill="none" fill-rule="evenodd">
        <g id="MVP" transform="translate(-354.000000, -549.000000)" fill="#FFFFFF" fill-rule="nonzero">
            <g id="socials" transform="translate(354.000000, 549.000000)">
                <path d="M0,20 C0,16.37332 0.89336,13.02668 2.68,9.96 C4.46668,6.89332 6.89336,4.46668 9.96,2.68 C13.02668,0.89332 16.37336,0 20,0 C23.62668,0 26.97336,0.89332 30.04,2.68 C33.10668,4.46668 35.53336,6.89332 37.32,9.96 C39.10668,13.02668 40,16.37332 40,20 C40,23.62668 39.10668,26.97332 37.32,30.04 C35.53336,33.10668 33.10668,35.53332 30.04,37.32 C26.97336,39.10668 23.62668,40 20,40 C16.37336,40 13.02668,39.10668 9.96,37.32 C6.89336,35.53332 4.46668,33.10668 2.68,30.04 C0.89336,26.97332 0,23.62668 0,20 Z M2.91864061,19.5113403 C3.0649791,24.0206416 3.61501375,27.0796666 7.3081421,31.4370774 C8.7962604,28.9934837 10.8838865,26.5498447 13.6750701,24.2646425 C16.466294,21.9794404 19.2962037,20.6825704 21.8511933,19.9761541 C21.4486168,19.0352075 20.8556657,17.8449891 20.4799008,17.0922077 C15.699739,18.4897072 10.7904196,19.2760744 5.35336108,19.5113403 C4.65669698,19.5414855 3.8451235,19.5414855 2.91864061,19.5113403 Z M3.29998182,16.5031363 C4.28668305,16.5509208 5.16786501,16.5509208 5.94352769,16.5031363 C10.4985437,16.2225255 14.846094,15.5800231 19.0076917,14.4480359 C16.9445038,10.7443322 14.8095606,7.39529463 12.6932062,4.59833986 C10.5485756,5.69574727 8.14076859,7.5217012 6.60691751,9.46956128 C5.07310716,11.4174214 3.92440299,14.1437535 3.29998182,16.5031363 Z M9.52262532,33.4627597 C12.5487156,35.866922 16.1641061,37.1072576 20.0016812,37.1072576 C22.0015854,37.1072576 24.7290378,36.603848 26.6362835,35.731506 C25.8870755,31.2479921 24.5700662,27.0070914 23.0025814,22.8253665 C20.6768055,23.6139242 18.3194247,24.667212 15.6826849,26.6210045 C13.045945,28.5747971 10.7387668,31.1366956 9.52262532,33.4627597 Z M16.0380052,3.45281897 C17.866004,6.02603613 20.3564277,9.80772067 22.3693101,13.4304992 C26.1671386,11.9887216 29.3361549,9.80772067 31.2804817,7.29508209 C28.1726412,4.43163188 23.8008549,2.95715412 19.7763008,2.95715412 C19.1478015,2.95715412 17.4443447,3.13004227 16.0380052,3.45281897 Z M23.7487385,15.9991008 C24.144732,16.8341776 24.6734613,18.0320642 25.1750266,19.3108085 C27.1286208,19.1281196 29.2001913,19.0191673 31.4320913,19.1753143 C33.0626176,19.2893883 35.4350387,19.5271143 37.0184125,19.8721865 C37.0184125,16.3347072 35.6515009,12.0548259 33.1606599,9.2989418 C31.2978487,11.74527 27.8406975,14.224548 23.7487385,15.9991008 Z M26.2418482,22.0320367 C27.6084862,26.052986 28.7525596,29.9411611 29.5393963,34.1393704 C31.556164,32.6924296 33.0366817,31.3081539 34.3765095,29.1346887 C35.7163774,26.9612235 36.324513,25.2286682 36.8704797,22.7566024 C35.0408381,22.2210402 32.7672415,21.8962079 31.0809954,21.8039965 C29.6088302,21.723492 27.7275911,21.8039965 26.2418482,22.0320367 Z" id="social-dribbble"></path>
            </g>
        </g>
    </g>
</svg>