<?xml version="1.0" encoding="UTF-8"?>
<svg width="40px" height="40px" viewBox="0 0 40 40" version="1.1" xmlns="http://www.w3.org/2000/svg" xmlns:xlink="http://www.w3.org/1999/xlink">
    <!-- Generator: Sketch 50.2 (55047) - http://www.bohemiancoding.com/sketch -->
    <title>social-instagram</title>
    <desc>Created with Sketch.</desc>
    <defs></defs>
    <g id="Landing" stroke="none" stroke-width="1" fill="none" fill-rule="evenodd">
        <g id="MVP" transform="translate(-444.000000, -549.000000)" fill="#FFFFFF">
            <g id="socials" transform="translate(354.000000, 549.000000)">
                <path d="M110.00004,0 C104.568326,0 103.887238,0.0230231363 101.754026,0.12035543 C99.6252588,0.217449553 98.1713874,0.555572095 96.89924,1.05001379 C95.5840632,1.56104803 94.4687114,2.24491457 93.3567733,3.35677327 C92.2449146,4.46871136 91.561048,5.58406323 91.0500138,6.89924004 C90.5555721,8.1713874 90.2174496,9.62525876 90.1203554,11.7540256 C90.0230231,13.8872382 90,14.5683261 90,20.0000397 C90,25.4316739 90.0230231,26.1127618 90.1203554,28.2459744 C90.2174496,30.3747412 90.5555721,31.8286126 91.0500138,33.10076 C91.561048,34.4159368 92.2449146,35.5312886 93.3567733,36.6432267 C94.4687114,37.7550854 95.5840632,38.438952 96.89924,38.9500656 C98.1713874,39.4444279 99.6252588,39.7825504 101.754026,39.8796446 C103.887238,39.9769769 104.568326,40 110.00004,40 C115.431674,40 116.112762,39.9769769 118.245974,39.8796446 C120.374741,39.7825504 121.828613,39.4444279 123.10076,38.9500656 C124.415937,38.438952 125.531289,37.7550854 126.643227,36.6432267 C127.755085,35.5312886 128.438952,34.4159368 128.950066,33.10076 C129.444428,31.8286126 129.78255,30.3747412 129.879645,28.2459744 C129.976977,26.1127618 130,25.4316739 130,20.0000397 C130,14.5683261 129.976977,13.8872382 129.879645,11.7540256 C129.78255,9.62525876 129.444428,8.1713874 128.950066,6.89924004 C128.438952,5.58406323 127.755085,4.46871136 126.643227,3.35677327 C125.531289,2.24491457 124.415937,1.56104803 123.10076,1.05001379 C121.828613,0.555572095 120.374741,0.217449553 118.245974,0.12035543 C116.112762,0.0230231363 115.431674,0 110.00004,0 Z M110.00004,3.60359717 C115.340216,3.60359717 115.972797,3.62400043 118.081716,3.72022126 C120.031697,3.8091382 121.090681,4.13495527 121.795428,4.40885121 C122.728976,4.77166408 123.395218,5.20505477 124.095042,5.90495811 C124.794945,6.60478206 125.228336,7.27102399 125.591149,8.20457247 C125.865045,8.90931861 126.190862,9.96830349 126.279779,11.9182837 C126.376,14.027203 126.396403,14.6597835 126.396403,20.0000397 C126.396403,25.3402165 126.376,25.972797 126.279779,28.0817163 C126.190862,30.0316965 125.865045,31.0906814 125.591149,31.7954275 C125.228336,32.728976 124.794945,33.3952179 124.095042,34.0950419 C123.395218,34.7949452 122.728976,35.2283359 121.795428,35.5911488 C121.090681,35.8650447 120.031697,36.1908618 118.081716,36.2797787 C115.973115,36.3759996 115.340613,36.3964028 110.00004,36.3964028 C104.659387,36.3964028 104.026965,36.3759996 101.918284,36.2797787 C99.9683035,36.1908618 98.9093186,35.8650447 98.2045725,35.5911488 C97.271024,35.2283359 96.6047821,34.7949452 95.9049581,34.0950419 C95.2051342,33.3952179 94.7716641,32.728976 94.4088512,31.7954275 C94.1349553,31.0906814 93.8091382,30.0316965 93.7202213,28.0817163 C93.6240004,25.972797 93.6035972,25.3402165 93.6035972,20.0000397 C93.6035972,14.6597835 93.6240004,14.027203 93.7202213,11.9182837 C93.8091382,9.96830349 94.1349553,8.90931861 94.4088512,8.20457247 C94.7716641,7.27102399 95.2050548,6.60478206 95.9049581,5.90495811 C96.6047821,5.20505477 97.271024,4.77166408 98.2045725,4.40885121 C98.9093186,4.13495527 99.9683035,3.8091382 101.918284,3.72022126 C104.027203,3.62400043 104.659784,3.60359717 110.00004,3.60359717 Z M110.00004,26.6666667 C113.681916,26.6666667 116.666667,23.6819155 116.666667,20.0000397 C116.666667,16.3180845 113.681916,13.3333333 110.00004,13.3333333 C106.318084,13.3333333 103.333333,16.3180845 103.333333,20.0000397 C103.333333,23.6819155 106.318084,26.6666667 110.00004,26.6666667 Z M110.00004,9.72973617 C115.672147,9.72973617 120.270264,14.3278534 120.270264,20.0000397 C120.270264,25.6721466 115.672147,30.2702638 110.00004,30.2702638 C104.327853,30.2702638 99.7297362,25.6721466 99.7297362,20.0000397 C99.7297362,14.3278534 104.327853,9.72973617 110.00004,9.72973617 Z M123.07607,9.32397324 C123.07607,10.6494708 122.001524,11.7239367 120.676027,11.7239367 C119.350609,11.7239367 118.276063,10.6494708 118.276063,9.32397324 C118.276063,7.99847571 119.350609,6.92393037 120.676027,6.92393037 C122.001524,6.92393037 123.07607,7.99847571 123.07607,9.32397324 Z" id="social-instagram"></path>
            </g>
        </g>
    </g>
</svg>