<?xml version="1.0" encoding="UTF-8"?>
<svg width="40px" height="39px" viewBox="0 0 40 39" version="1.1" xmlns="http://www.w3.org/2000/svg" xmlns:xlink="http://www.w3.org/1999/xlink">
    <!-- Generator: Sketch 50.2 (55047) - http://www.bohemiancoding.com/sketch -->
    <title>social-github</title>
    <desc>Created with Sketch.</desc>
    <defs></defs>
    <g id="Landing" stroke="none" stroke-width="1" fill="none" fill-rule="evenodd">
        <g id="MVP" transform="translate(-624.000000, -549.000000)" fill="#FFFFFE">
            <g id="socials" transform="translate(354.000000, 549.000000)">
                <path d="M289.998158,0 C278.955462,0 270,8.95131998 270,19.9941043 C270,28.8275953 275.730072,36.3207817 283.677522,38.9645693 C284.678167,39.1486771 285.042819,38.5313023 285.042819,38.001072 C285.042819,37.5260739 285.02563,36.2692315 285.015808,34.6012151 C279.452715,35.8089621 278.278953,31.9206059 278.278953,31.9206059 C277.369164,29.610667 276.05789,28.995747 276.05789,28.995747 C274.241996,27.756088 276.195402,27.7806357 276.195402,27.7806357 C278.20283,27.921785 279.258725,29.8414154 279.258725,29.8414154 C281.042696,32.8963771 283.940268,32.0138871 285.079653,31.5020675 C285.261365,30.2108583 285.778262,29.3295958 286.349182,28.83005 C281.908284,28.3255947 277.239019,26.6097103 277.239019,18.9483721 C277.239019,16.7660813 278.018662,14.9802359 279.298014,13.5834716 C279.091746,13.0777889 278.405415,11.0440117 279.49446,8.29221414 C279.49446,8.29221414 281.172841,7.75461944 284.993708,10.3419474 C286.5886,9.89763393 288.300132,9.67670461 290.000614,9.66811291 C291.699868,9.67670461 293.410172,9.89763393 295.00752,10.3419474 C298.825931,7.75461944 300.501857,8.29221414 300.501857,8.29221414 C301.593358,11.0440117 300.907026,13.0777889 300.701986,13.5834716 C301.983793,14.9802359 302.757298,16.7660813 302.757298,18.9483721 C302.757298,26.6293484 298.080665,28.3194578 293.626262,28.814094 C294.343289,29.4314688 294.982964,30.6514896 294.982964,32.5158877 C294.982964,35.1891326 294.958409,37.3456483 294.958409,38.001072 C294.958409,38.5362119 295.319378,39.1584962 296.333528,38.9633419 C304.27484,36.3134174 310,28.8251405 310,19.9941043 C310,8.95131998 301.044538,0 289.998158,0" id="social-github"></path>
            </g>
        </g>
    </g>
</svg>