<?xml version="1.0" encoding="UTF-8"?>
<svg width="50px" height="35px" viewBox="0 0 50 35" version="1.1" xmlns="http://www.w3.org/2000/svg" xmlns:xlink="http://www.w3.org/1999/xlink">
    <!-- Generator: Sketch 50.2 (55047) - http://www.bohemiancoding.com/sketch -->
    <title>social-youtube</title>
    <desc>Created with Sketch.</desc>
    <defs></defs>
    <g id="Landing" stroke="none" stroke-width="1" fill="none" fill-rule="evenodd">
        <g id="MVP" transform="translate(-889.000000, -552.000000)" fill="#FFFFFE">
            <g id="socials" transform="translate(354.000000, 549.000000)">
                <path d="M554.886364,27.8864113 L554.886364,13.1135887 L567.954545,20.5002823 L554.886364,27.8864113 Z M583.955114,8.4653629 C583.380114,6.31399194 581.685795,4.61987903 579.534659,4.04491935 C575.635511,3 560,3 560,3 C560,3 544.364489,3 540.465341,4.04491935 C538.314205,4.61987903 536.619886,6.31399194 536.044886,8.4653629 C535,12.3644758 535,20.5 535,20.5 C535,20.5 535,28.6352419 536.044886,32.5346371 C536.619886,34.6860081 538.314205,36.380121 540.465341,36.9553629 C544.364489,38 560,38 560,38 C560,38 575.635511,38 579.534659,36.9553629 C581.685795,36.380121 583.380114,34.6860081 583.955114,32.5346371 C585,28.6352419 585,20.5 585,20.5 C585,20.5 585,12.3644758 583.955114,8.4653629 Z" id="social-youtube"></path>
            </g>
        </g>
    </g>
</svg>