<?xml version="1.0" encoding="UTF-8"?>
<svg width="38px" height="38px" viewBox="0 0 38 38" version="1.1" xmlns="http://www.w3.org/2000/svg" xmlns:xlink="http://www.w3.org/1999/xlink">
    <!-- Generator: Sketch 52.5 (67469) - http://www.bohemiancoding.com/sketch -->
    <title>icon-projects</title>
    <desc>Created with Sketch.</desc>
    <g id="v2" stroke="none" stroke-width="1" fill="none" fill-rule="evenodd">
        <g id="Landing-Desktop" transform="translate(-710.000000, -1739.000000)" fill="#FFFFFF" fill-rule="nonzero">
            <g id="projects" transform="translate(0.000000, 700.000000)">
                <g id="container" transform="translate(100.000000, 102.000000)">
                    <g id="cards" transform="translate(0.000000, 108.000000)">
                        <g id="proj-5" transform="translate(570.000000, 660.000000)">
                            <path d="M43.25,197.875 L43.25,194 L44.875,194 L44.875,197.875 L43.25,197.875 Z M49.125,203.75 L49.125,202.125 L53,202.125 L53,203.75 L49.125,203.75 Z M41.625,206.375 C41.0727153,206.375 40.625,205.927285 40.625,205.375 L40.625,200.5 C40.625,199.947715 41.0727153,199.5 41.625,199.5 L46.5,199.5 C47.0522847,199.5 47.5,199.947715 47.5,200.5 L47.5,205.375 C47.5,205.927285 47.0522847,206.375 46.5,206.375 L41.625,206.375 Z M75.9545475,187.954547 C76.0848899,188.138804 76.1311046,188.372081 76.0770767,188.595445 C76.0116574,188.862644 75.8122469,189.076245 75.5497818,189.160583 L51.078868,196.946459 L60.3187316,187.797147 C60.9576141,188.221471 61.7070428,188.449628 62.4919424,188.449628 C63.5449558,188.449628 64.5349145,188.038977 65.2789599,187.294918 C66.0230053,186.550071 66.4328609,185.560094 66.4328609,184.50785 C66.4328609,183.455606 66.0230053,182.465629 65.2789599,181.72157 C64.5349145,180.977511 63.5449558,180.56686 62.4919424,180.56686 C61.4389289,180.56686 60.4497584,180.977511 59.705713,181.72157 C58.9616676,182.465629 58.5510238,183.455606 58.5510238,184.50785 C58.5510238,185.292501 58.7793656,186.042528 59.204021,186.682107 L50.0472019,195.941112 L57.839294,171.449774 C57.9236296,171.188092 58.1372274,170.98789 58.4044217,170.923257 C58.6245852,170.868051 58.8589965,170.913677 59.0436858,171.043686 L75.9545475,187.954547 Z M62.4919424,182.143256 C63.1240657,182.143256 63.717568,182.389174 64.1644682,182.836082 C64.6105802,183.28299 64.8564935,183.876503 64.8564935,184.50785 C64.8564935,185.139196 64.6105802,185.733498 64.1644682,186.180406 C63.271456,187.072646 61.7132169,187.072646 60.8202047,186.180406 C60.3740927,185.733498 60.1273912,185.139196 60.1273912,184.50785 C60.1273912,183.876503 60.3740927,183.28299 60.8202047,182.836082 C61.2671049,182.389174 61.8606072,182.143256 62.4919424,182.143256 Z M64,173.5 L69.5269303,169.350066 C69.9250561,169.05113 70.4824435,169.090592 70.834482,169.442637 L77.5576419,176.165918 C77.9096927,176.517976 77.9491327,177.075388 77.650161,177.473509 L73.5,183 L64,173.5 Z" id="icon-projects"></path>
                        </g>
                    </g>
                </g>
            </g>
        </g>
    </g>
</svg>