<?xml version="1.0" encoding="UTF-8"?>
<svg width="54px" height="40px" viewBox="0 0 54 40" version="1.1" xmlns="http://www.w3.org/2000/svg" xmlns:xlink="http://www.w3.org/1999/xlink">
    <!-- Generator: Sketch 52.6 (67491) - http://www.bohemiancoding.com/sketch -->
    <title>Artboard</title>
    <desc>Created with Sketch.</desc>
    <g id="Artboard" stroke="none" stroke-width="1" fill="none" fill-rule="evenodd">
        <path d="M22.71752,11.2861859 C22.7365668,10.575845 23.3232517,10 24.0303765,10 L23.3437096,10 C24.0497334,10 24.6408199,10.5754524 24.6639669,11.2861859 L25,21.6041651 L24.6646965,31.7149049 C24.6411594,32.4246433 24.0508343,33 23.3437096,33 L24.0303765,33 C23.3243526,33 22.7361496,32.4192118 22.7169193,31.7149049 L22.440858,21.6041651 L22.71752,11.2861859 Z M18.2250575,14.0634584 C18.2464741,13.3617247 18.8350802,12.7928571 19.5422049,12.7928571 L18.855538,12.7928571 C19.5615618,12.7928571 20.1553087,13.3702003 20.181007,14.0634584 L20.5118284,22.9879451 L20.1825401,31.7115956 C20.1556809,32.4231617 19.5626627,33 18.855538,33 L19.5422049,33 C18.8361811,33 18.2462154,32.4330219 18.2237953,31.7115956 L17.9526864,22.9879451 L18.2250575,14.0634584 Z M13.7375111,13.7347307 C13.7585824,13.0330833 14.3469086,12.4642857 15.0540333,12.4642857 L14.3673664,12.4642857 C15.0733902,12.4642857 15.6665926,13.0360888 15.6920761,13.7347307 L16.0236568,22.8251474 L15.6935996,31.7113479 C15.667165,32.4230508 15.0744911,33 14.3673664,33 L15.0540333,33 C14.3480095,33 13.7580438,32.4238028 13.7362568,31.7113479 L13.4645148,22.8251474 L13.7375111,13.7347307 Z M9.23611251,18.8437288 C9.26448889,18.133167 9.85873697,17.5571429 10.5658617,17.5571429 L9.8791948,17.5571429 C10.5852186,17.5571429 11.1853534,18.1300607 11.21997,18.8437288 L11.5354852,25.3485109 L11.2208195,31.7193127 C11.1858844,32.4266168 10.5863195,33 9.8791948,33 L10.5658617,33 C9.85983787,33 9.26410572,32.4248947 9.23541309,31.7193127 L8.97634318,25.3485109 L9.23611251,18.8437288 Z M4.75206402,17.034051 C4.77816327,16.3248892 5.37056538,15.75 6.07769009,15.75 L5.39102321,15.75 C6.09704701,15.75 6.69536845,16.3311095 6.7267905,17.034051 L7.04731363,24.2044631 L6.72761436,31.2280447 C6.69545926,31.9344711 6.09814792,32.5071429 5.39102321,32.5071429 L6.07769009,32.5071429 C5.37166628,32.5071429 4.77793435,31.9364661 4.75138571,31.2280447 L4.48817159,24.2044631 L4.75206402,17.034051 Z M0.234235977,21.7845975 C0.276714036,21.0830237 0.882393786,20.5142857 1.58951849,20.5142857 L0.902851617,20.5142857 C1.60887542,20.5142857 2.22310895,21.0838823 2.27463956,21.7845975 L2.55914204,25.6532731 L2.27658629,29.4264977 C2.22391739,30.1298336 1.60997632,30.7 0.902851617,30.7 L1.58951849,30.7 C0.883494688,30.7 0.275456525,30.1210763 0.232633199,29.4264977 L0,25.6532731 L0.234235977,21.7845975 Z M27.7738546,7.889281 C29.1202201,7.32994924 30.6441284,7 32.2083482,7 C38.5979558,7 43.8361089,11.9874313 44.3876063,18.6935366 C45.2129226,18.3226827 46.119291,18.1158995 47.0687585,18.1158995 C50.8968623,18.1158995 54,21.4474828 54,25.5578367 C54,29.6681907 50.8968623,33 47.0687585,33 C46.9450361,33 27.7837181,32.9900563 27.7663498,32.9882484 C27.3520835,32.9437278 27.0079337,32.5642862 27.0023587,32.1089111 C27.0023587,32.1089111 27,8.76432446 27,8.76409846 C27.0047173,8.32996662 27.2508756,8.10668591 27.7738546,7.889281 Z" id="wave" fill="#FFFFFF"></path>
    </g>
</svg>