<?xml version="1.0" encoding="UTF-8"?>
<svg width="294px" height="43px" viewBox="0 0 294 43" version="1.1" xmlns="http://www.w3.org/2000/svg" xmlns:xlink="http://www.w3.org/1999/xlink">
    <!-- Generator: Sketch 54.1 (76490) - https://sketchapp.com -->
    <title>logo-ss-small</title>
    <desc>Created with Sketch.</desc>
    <g id="v2" stroke="none" stroke-width="1" fill="none" fill-rule="evenodd">
        <g id="Project-Mobile" transform="translate(-42.000000, -1782.000000)" fill-rule="nonzero">
            <g id="body" transform="translate(1.000000, 713.000000)">
                <g id="container" transform="translate(30.000000, 50.000000)">
                    <g id="logos" transform="translate(11.000000, 927.000000)">
                        <g id="logo-ss-small" transform="translate(0.000000, 91.777328)">
                            <path d="M29.5533615,19.1714562 C30.954029,23.0733157 28.9530754,27.375366 25.0512158,28.7760335 C21.1493563,30.176701 16.8473061,28.1757474 15.4466385,24.2738879 C14.045971,20.3720284 16.0469246,16.0699781 19.9487842,14.6693106 C23.8506437,13.2686431 28.1526939,15.2695967 29.5533615,19.1714562" id="Path" fill="#FFA400"></path>
                            <path d="M42.7033966,27.5198122 C43.6388788,30.1237329 42.2876268,32.9880456 39.6890651,33.925457 C37.0905034,34.8628685 34.2320856,33.5088297 33.2966034,30.9049091 C32.3611212,28.3009884 33.7123732,25.4366757 36.3109349,24.4992643 C38.8575254,23.6139312 41.7159432,24.9158916 42.7033966,27.5198122" id="Path" fill="#F05A5D"></path>
                            <path d="M9.70339664,12.533607 C10.6388788,15.1321687 9.28762677,17.9905865 6.68906509,18.9260687 C4.09050341,19.8615509 1.23208556,18.5102988 0.296603358,15.9117372 C-0.638878847,13.3131755 0.712373227,10.4547576 3.31093491,9.51927542 C5.90949659,8.58379322 8.76791444,9.93504529 9.70339664,12.533607" id="Path" fill="#645FA9"></path>
                            <path d="M27.3109349,0.519275423 C29.9094966,-0.416206782 32.7679144,0.935045292 33.7033966,3.53360697 C34.6388788,6.13216865 33.2876268,8.9905865 30.6890651,9.92606871 C28.0905034,10.8615509 25.2320856,9.51029884 24.2966034,6.91173716 C23.3611212,4.31317548 24.7123732,1.45475763 27.3109349,0.519275423" id="Path" fill="#3DC6F3"></path>
                            <path d="M12.2971402,33.5192754 C14.9010608,32.5837932 17.7653735,33.9350453 18.702785,36.533607 C19.6401964,39.1321687 18.2861577,41.9905865 15.682237,42.9260687 C13.0783164,43.8615509 10.2140036,42.5102988 9.2765922,39.9117372 C8.39125917,37.3131755 9.6932195,34.4547576 12.2971402,33.5192754" id="Path" fill="#56BD88"></path>
                            <path d="M55,34.5399963 L58.1865672,30.6806481 C60.3283582,33.2535469 63.2537313,34.5399963 65.8134328,34.5399963 C69.1044776,34.5399963 70.7761194,33.1506309 70.7761194,30.9893959 C70.7761194,28.4164971 68.7910448,27.5931695 65.0298507,26.3067201 C60.4850746,24.7629808 56.0447761,22.7561197 56.0447761,17.4044902 C56.0447761,12.8247304 60.3283582,9.22267206 65.4477612,9.22267206 C68.9477612,9.22267206 72.2910448,10.4576635 75.2686567,12.8247304 L72.238806,16.7355366 C69.8358209,14.7801335 67.4328358,13.699516 65.3955224,13.699516 C63.0970149,13.699516 61.2686567,14.9345074 61.2164179,17.1472004 C61.1641791,19.3084354 63.2014925,20.028847 66.8059701,21.4182124 C71.9253731,23.3736155 76,24.7629808 76,30.4233582 C76,36.4953993 70.5149254,39.2226721 65.761194,39.2226721 C61.9477612,39.1197561 58.1343284,37.6789328 55,34.5399963 Z" id="Path" fill="#404041"></path>
                            <path d="M79.614786,33.4048282 L79.614786,23.4643078 L77,23.4643078 L77,19.5089174 L79.614786,19.5089174 L79.614786,12.7431182 L84.5175097,12.2226721 L84.5175097,19.5089174 L90.7821012,19.5089174 L90.7821012,23.4643078 L84.5175097,23.4643078 L84.5175097,32.9884713 C84.5175097,35.0702557 85.1712062,35.8509249 86.5875486,35.8509249 C87.4046693,35.8509249 88.6031128,35.5386572 89.7470817,34.9661665 L91,39.025646 C89.7470817,39.702226 88.385214,40.2226721 85.6070039,40.2226721 C81.9027237,40.1706275 79.614786,37.9847538 79.614786,33.4048282 Z" id="Path" fill="#404041"></path>
                            <path d="M92,29.7746523 C92,23.6409889 96.2418953,19.2226721 101.845387,19.2226721 C104.46384,19.2226721 106.715711,20.1583156 108.182045,22.0296028 L108.286783,21.9776226 L108.286783,19.5345533 L113,19.5345533 L113,39.8588107 L108.496259,39.8588107 L108.496259,37.2078206 L108.391521,37.1558404 C106.925187,39.1310879 104.725686,40.2226721 101.897756,40.2226721 C96.2418953,40.1706919 92,36.0642562 92,29.7746523 Z M108.496259,29.8266325 C108.496259,26.1880186 106.034913,23.4330681 102.683292,23.4330681 C99.3840399,23.4330681 96.8179551,25.8761374 96.8179551,29.8266325 C96.8179551,33.4132661 99.2269327,35.9602958 102.683292,35.9602958 C105.825436,35.9602958 108.496259,33.4652463 108.496259,29.8266325 Z" id="Shape" fill="#404041"></path>
                            <path d="M117,19.4878236 L121.821429,19.4878236 L121.821429,22.6166115 L121.928571,22.6166115 C123.535714,20.442369 125.892857,19.2226721 128.410714,19.2226721 L129,19.2226721 L129,24.5257024 C128.464286,24.4726721 127.875,24.4196418 127.553571,24.4196418 C123.910714,24.4196418 121.821429,27.0181266 121.821429,30.412066 L121.821429,40.2226721 L117,40.2226721 L117,19.4878236 L117,19.4878236 Z" id="Path" fill="#404041"></path>
                            <path d="M132.614786,33.4048282 L132.614786,23.4643078 L130,23.4643078 L130,19.5089174 L132.614786,19.5089174 L132.614786,12.7431182 L137.51751,12.2226721 L137.51751,19.5089174 L143.782101,19.5089174 L143.782101,23.4643078 L137.51751,23.4643078 L137.51751,32.9884713 C137.51751,35.0702557 138.171206,35.8509249 139.587549,35.8509249 C140.404669,35.8509249 141.603113,35.5386572 142.747082,34.9661665 L144,39.025646 C142.747082,39.702226 141.385214,40.2226721 138.607004,40.2226721 C134.902724,40.1706275 132.614786,37.9847538 132.614786,33.4048282 Z" id="Path" fill="#404041"></path>
                            <path d="M163.842105,31.2077837 L148.842105,31.2077837 C149.421053,34.1780071 151.684211,35.9497192 154.894737,35.9497192 C157.315789,35.9497192 159.052632,34.8554264 160.105263,33.5526969 L163.421053,36.3665927 C161.684211,38.5551783 159.105263,40.2226721 154.684211,40.2226721 C148.421053,40.2226721 144,36.1060468 144,29.6966175 C144,23.4435157 148.315789,19.2226721 154.315789,19.2226721 C160.105263,19.2226721 164,23.5477341 164,29.4360716 C163.947368,30.1656001 163.894737,30.8951286 163.842105,31.2077837 Z M148.894737,27.5080319 L159.210526,27.5080319 C158.631579,25.0589004 156.947368,23.3914066 154.210526,23.3914066 C151.631579,23.3914066 149.578947,24.8504636 148.894737,27.5080319 Z" id="Shape" fill="#404041"></path>
                            <path d="M167,19.4878236 L171.821429,19.4878236 L171.821429,22.6166115 L171.928571,22.6166115 C173.535714,20.442369 175.892857,19.2226721 178.410714,19.2226721 L179,19.2226721 L179,24.5257024 C178.464286,24.4726721 177.875,24.4196418 177.553571,24.4196418 C173.910714,24.4196418 171.821429,27.0181266 171.821429,30.412066 L171.821429,40.2226721 L167,40.2226721 L167,19.4878236 L167,19.4878236 Z" id="Path" fill="#404041"></path>
                            <path d="M180,34.5399963 L183.186567,30.6806481 C185.328358,33.2535469 188.253731,34.5399963 190.813433,34.5399963 C194.104478,34.5399963 195.776119,33.1506309 195.776119,30.9893959 C195.776119,28.4164971 193.791045,27.5931695 190.029851,26.3067201 C185.485075,24.7629808 181.044776,22.7561197 181.044776,17.4044902 C181.044776,12.8247304 185.328358,9.22267206 190.447761,9.22267206 C193.947761,9.22267206 197.291045,10.4576635 200.268657,12.8247304 L197.238806,16.7355366 C194.835821,14.7801335 192.432836,13.699516 190.395522,13.699516 C188.097015,13.699516 186.268657,14.9345074 186.216418,17.1472004 C186.164179,19.3084354 188.201493,20.028847 191.80597,21.4182124 C196.925373,23.3736155 201,24.7629808 201,30.4233582 C201,36.4953993 195.514925,39.2226721 190.761194,39.2226721 C186.947761,39.1197561 183.08209,37.6789328 180,34.5399963 Z" id="Path" fill="#404041"></path>
                            <path d="M204.614786,33.4048282 L204.614786,23.4643078 L202,23.4643078 L202,19.5089174 L204.614786,19.5089174 L204.614786,12.7431182 L209.51751,12.2226721 L209.51751,19.5089174 L215.782101,19.5089174 L215.782101,23.4643078 L209.51751,23.4643078 L209.51751,32.9884713 C209.51751,35.0702557 210.171206,35.8509249 211.587549,35.8509249 C212.404669,35.8509249 213.603113,35.5386572 214.747082,34.9661665 L216,39.025646 C214.747082,39.702226 213.385214,40.2226721 210.607004,40.2226721 C206.848249,40.1706275 204.614786,37.9847538 204.614786,33.4048282 Z" id="Path" fill="#404041"></path>
                            <path d="M219,31.8120927 L219,19.2226721 L223.52514,19.2226721 L223.52514,30.5425713 C223.52514,34.6685159 224.731844,35.9380373 227.446927,35.9380373 C230.061453,35.9380373 232.47486,33.6105814 232.47486,29.1672564 L232.47486,19.2226721 L237,19.2226721 L237,39.9052917 L232.47486,39.9052917 L232.47486,37.3133522 L232.374302,37.2604554 C230.815642,39.270531 228.603352,40.2226721 226.391061,40.2226721 C222.01676,40.2226721 219,37.9481129 219,31.8120927 Z" id="Path" fill="#404041"></path>
                            <path d="M239,29.4307258 C239,23.0951553 243.293103,18.5850882 248.827586,18.5850882 C251.465517,18.5850882 253.741379,19.6052224 255.293103,21.484417 L255.344828,21.484417 L255.396552,8.22267206 L260,8.22267206 L259.896552,39.9005244 L255.448276,39.9005244 L255.448276,37.0548868 L255.396552,37.0548868 C253.896552,39.0951553 251.672414,40.2226721 248.775862,40.2226721 C243.189655,40.2226721 239,35.9273701 239,29.4307258 Z M255.5,29.5381083 C255.5,25.779719 253.12069,22.9340815 249.655172,22.9340815 C246.396552,22.9340815 243.810345,25.4575714 243.758621,29.484417 C243.758621,33.189115 246.137931,35.8199875 249.551724,35.8199875 C252.862069,35.8736788 255.448276,33.2964976 255.5,29.5381083 Z" id="Shape" fill="#404041"></path>
                            <polygon id="Path" fill="#404041" points="265.108696 20.2226721 270 20.2226721 269.891304 40.2226721 265 40.2226721"></polygon>
                            <path d="M273,29.6966053 C273,23.7043108 277.251129,19.1710098 283.550995,19.2231167 C289.697205,19.2231167 294.050771,23.5479901 293.999553,29.8008191 C293.999553,36.0015411 289.594769,40.2743076 283.448558,40.2222007 C277.148692,40.1700938 273,35.6367928 273,29.6966053 Z M289.338676,29.7487122 C289.338676,25.9970148 286.828974,23.4437763 283.550995,23.4437763 C280.068142,23.4437763 277.712095,26.1533355 277.712095,29.7487122 C277.712095,33.239875 280.068142,36.0015411 283.499776,36.0015411 C286.726537,35.9494342 289.338676,33.3961957 289.338676,29.7487122 Z" id="Shape" fill="#404041"></path>
                            <path d="M263,13.6643387 C263,11.7976721 264.561983,10.2226721 266.471074,10.2226721 C268.438017,10.2226721 270,11.7976721 270,13.7226721 C270,15.6476721 268.380165,17.2226721 266.471074,17.2226721 C264.504132,17.1643387 263,15.5893387 263,13.6643387 Z" id="Path" fill="#F05A5D"></path>
                        </g>
                    </g>
                </g>
            </g>
        </g>
    </g>
</svg>