<?xml version="1.0" encoding="UTF-8"?>
<svg width="494px" height="73px" viewBox="0 0 494 73" version="1.1" xmlns="http://www.w3.org/2000/svg" xmlns:xlink="http://www.w3.org/1999/xlink">
    <!-- Generator: Sketch 54.1 (76490) - https://sketchapp.com -->
    <title>logo-ss</title>
    <desc>Created with Sketch.</desc>
    <g id="v2" stroke="none" stroke-width="1" fill="none" fill-rule="evenodd">
        <g id="Project-Desktop" transform="translate(-567.000000, -1891.000000)" fill-rule="nonzero">
            <g id="body" transform="translate(0.000000, 839.000000)">
                <g id="container" transform="translate(100.000000, 100.000000)">
                    <g id="logos" transform="translate(120.000000, 939.000000)">
                        <g id="logo-ss" transform="translate(347.000000, 13.000000)">
                            <path d="M49.2258265,31.5778925 C51.6536502,38.3411157 48.1853307,45.7980028 41.4221075,48.2258265 C34.6588843,50.6536502 27.2019972,47.1853307 24.7741735,40.4221075 C22.3463498,33.6588843 25.8146693,26.2019972 32.5778925,23.7741735 C39.3411157,21.3463498 46.7980028,24.8146693 49.2258265,31.5778925" id="Path" fill="#FFA400"></path>
                            <path d="M72.4957743,46.6051383 C74.086094,51.0318034 71.7889655,55.901135 67.3714107,57.4947344 C62.9538558,59.0883339 58.0945455,56.786468 56.5042257,52.3598029 C54.913906,47.9331378 57.2110345,43.0638062 61.6285893,41.4702067 C65.9577931,39.9651406 70.8171034,42.1784732 72.4957743,46.6051383" id="Path" fill="#F05A5D"></path>
                            <path d="M16.4957743,20.6285893 C18.086094,25.0461442 15.7889655,29.9054545 11.3714107,31.4957743 C6.9538558,33.086094 2.09454546,30.7889655 0.504225709,26.3714107 C-1.08609404,21.9538558 1.21103449,17.0945455 5.62858934,15.5042257 C10.0461442,13.913906 14.9054545,16.2110345 16.4957743,20.6285893" id="Path" fill="#645FA9"></path>
                            <path d="M46.6285893,0.504225709 C51.0461442,-1.08609404 55.9054545,1.21103449 57.4957743,5.62858934 C59.086094,10.0461442 56.7889655,14.9054545 52.3714107,16.4957743 C47.9538558,18.086094 43.0945455,15.7889655 41.5042257,11.3714107 C39.913906,6.9538558 42.2110345,2.09454546 46.6285893,0.504225709" id="Path" fill="#3DC6F3"></path>
                            <path d="M20.6051383,56.5042257 C25.0318034,54.913906 29.901135,57.2110345 31.4947344,61.6285893 C33.0883339,66.0461442 30.786468,70.9054545 26.3598029,72.4957743 C21.9331378,74.086094 17.0638062,71.7889655 15.4702067,67.3714107 C13.9651406,62.9538558 16.1784732,58.0945455 20.6051383,56.5042257" id="Path" fill="#56BD88"></path>
                            <path d="M92,59.0394511 L97.3109453,52.4785592 C100.880597,56.8524871 105.756219,59.0394511 110.022388,59.0394511 C115.507463,59.0394511 118.293532,56.67753 118.293532,53.0034305 C118.293532,48.6295026 114.985075,47.2298456 108.716418,45.0428816 C101.141791,42.4185249 93.7412935,39.0068611 93.7412935,29.9090909 C93.7412935,22.1234991 100.880597,16 109.412935,16 C115.246269,16 120.818408,18.0994854 125.781095,22.1234991 L120.731343,28.7718696 C116.726368,25.4476844 112.721393,23.6106346 109.325871,23.6106346 C105.495025,23.6106346 102.447761,25.7101201 102.360697,29.4716981 C102.273632,33.1457976 105.669154,34.3704974 111.676617,36.7324185 C120.208955,40.0566038 127,42.4185249 127,52.0411664 C127,62.3636364 117.858209,67 109.935323,67 C103.579602,66.8250429 97.2238806,64.3756432 92,59.0394511 Z" id="Path" fill="#404041"></path>
                            <path d="M133.29572,55.5557621 L133.29572,38.8698885 L129,38.8698885 L129,32.2304833 L133.29572,32.2304833 L133.29572,20.8736059 L141.350195,20 L141.350195,32.2304833 L151.642023,32.2304833 L151.642023,38.8698885 L141.350195,38.8698885 L141.350195,54.8568773 C141.350195,58.3513011 142.424125,59.66171 144.750973,59.66171 C146.093385,59.66171 148.062257,59.1375465 149.941634,58.1765799 L152,64.9907063 C149.941634,66.1263941 147.70428,67 143.140078,67 C137.054475,66.9126394 133.29572,63.2434944 133.29572,55.5557621 Z" id="Path" fill="#404041"></path>
                            <path d="M154,50.0891089 C154,39.5742574 161.069825,32 170.408978,32 C174.773067,32 178.526185,33.6039604 180.970075,36.8118812 L181.144638,36.7227723 L181.144638,32.5346535 L189,32.5346535 L189,67.3762376 L181.493766,67.3762376 L181.493766,62.8316832 L181.319202,62.7425743 C178.875312,66.1287129 175.209476,68 170.496259,68 C161.069825,67.9108911 154,60.8712871 154,50.0891089 Z M181.493766,50.1782178 C181.493766,43.9405941 177.391521,39.2178218 171.805486,39.2178218 C166.306733,39.2178218 162.029925,43.4059406 162.029925,50.1782178 C162.029925,56.3267327 166.044888,60.6930693 171.805486,60.6930693 C177.042394,60.6930693 181.493766,56.4158416 181.493766,50.1782178 Z" id="Shape" fill="#404041"></path>
                            <path d="M196,32.4419192 L204.035714,32.4419192 L204.035714,37.6565657 L204.214286,37.6565657 C206.892857,34.0328283 210.821429,32 215.017857,32 L216,32 L216,40.8383838 C215.107143,40.75 214.125,40.6616162 213.589286,40.6616162 C207.517857,40.6616162 204.035714,44.9924242 204.035714,50.6489899 L204.035714,67 L196,67 L196,32.4419192 L196,32.4419192 Z" id="Path" fill="#404041"></path>
                            <path d="M222.29572,55.5557621 L222.29572,38.8698885 L218,38.8698885 L218,32.2304833 L222.29572,32.2304833 L222.29572,20.8736059 L230.350195,20 L230.350195,32.2304833 L240.642023,32.2304833 L240.642023,38.8698885 L230.350195,38.8698885 L230.350195,54.8568773 C230.350195,58.3513011 231.424125,59.66171 233.750973,59.66171 C235.093385,59.66171 237.062257,59.1375465 238.941634,58.1765799 L241,64.9907063 C238.941634,66.1263941 236.70428,67 232.140078,67 C226.054475,66.9126394 222.29572,63.2434944 222.29572,55.5557621 Z" id="Path" fill="#404041"></path>
                            <path d="M275.739474,52.5459057 L250.989474,52.5459057 C251.944737,57.6377171 255.678947,60.674938 260.976316,60.674938 C264.971053,60.674938 267.836842,58.7990074 269.573684,56.5657568 L275.044737,61.3895782 C272.178947,65.1414392 267.923684,68 260.628947,68 C250.294737,68 243,60.942928 243,49.955335 C243,39.235732 250.121053,32 260.021053,32 C269.573684,32 276,39.4143921 276,49.5086849 C275.913158,50.7593052 275.826316,52.0099256 275.739474,52.5459057 Z M251.076316,46.2034739 L268.097368,46.2034739 C267.142105,42.0049628 264.363158,39.146402 259.847368,39.146402 C255.592105,39.146402 252.205263,41.6476427 251.076316,46.2034739 Z" id="Shape" fill="#404041"></path>
                            <path d="M281,32.4419192 L289.035714,32.4419192 L289.035714,37.6565657 L289.214286,37.6565657 C291.892857,34.0328283 295.821429,32 300.017857,32 L301,32 L301,40.8383838 C300.107143,40.75 299.125,40.6616162 298.589286,40.6616162 C292.517857,40.6616162 289.035714,44.9924242 289.035714,50.6489899 L289.035714,67 L281,67 L281,32.4419192 L281,32.4419192 Z" id="Path" fill="#404041"></path>
                            <path d="M303,59.0394511 L308.310945,52.4785592 C311.880597,56.8524871 316.756219,59.0394511 321.022388,59.0394511 C326.507463,59.0394511 329.293532,56.67753 329.293532,53.0034305 C329.293532,48.6295026 325.985075,47.2298456 319.716418,45.0428816 C312.141791,42.4185249 304.741294,39.0068611 304.741294,29.9090909 C304.741294,22.1234991 311.880597,16 320.412935,16 C326.246269,16 331.818408,18.0994854 336.781095,22.1234991 L331.731343,28.7718696 C327.726368,25.4476844 323.721393,23.6106346 320.325871,23.6106346 C316.495025,23.6106346 313.447761,25.7101201 313.360697,29.4716981 C313.273632,33.1457976 316.669154,34.3704974 322.676617,36.7324185 C331.208955,40.0566038 338,42.4185249 338,52.0411664 C338,62.3636364 328.858209,67 320.935323,67 C314.579602,66.8250429 308.136816,64.3756432 303,59.0394511 Z" id="Path" fill="#404041"></path>
                            <path d="M344.29572,55.5557621 L344.29572,38.8698885 L340,38.8698885 L340,32.2304833 L344.29572,32.2304833 L344.29572,20.8736059 L352.350195,20 L352.350195,32.2304833 L362.642023,32.2304833 L362.642023,38.8698885 L352.350195,38.8698885 L352.350195,54.8568773 C352.350195,58.3513011 353.424125,59.66171 355.750973,59.66171 C357.093385,59.66171 359.062257,59.1375465 360.941634,58.1765799 L363,64.9907063 C360.941634,66.1263941 358.70428,67 354.140078,67 C347.964981,66.9126394 344.29572,63.2434944 344.29572,55.5557621 Z" id="Path" fill="#404041"></path>
                            <path d="M367,52.9823678 L367,32 L374.793296,32 L374.793296,50.8664987 C374.793296,57.743073 376.871508,59.8589421 381.547486,59.8589421 C386.050279,59.8589421 390.206704,55.9798489 390.206704,48.5743073 L390.206704,32 L398,32 L398,66.4710327 L390.206704,66.4710327 L390.206704,62.1511335 L390.03352,62.0629723 C387.349162,65.4130982 383.539106,67 379.72905,67 C372.195531,67 367,63.209068 367,52.9823678 Z" id="Path" fill="#404041"></path>
                            <path d="M402,50.1258389 C402,39.6325503 409.359606,32.1627517 418.847291,32.1627517 C423.369458,32.1627517 427.270936,33.852349 429.931034,36.9647651 L430.019704,36.9647651 L430.108374,15 L438,15 L437.82266,67.466443 L430.197044,67.466443 L430.197044,62.7533557 L430.108374,62.7533557 C427.536946,66.1325503 423.724138,68 418.758621,68 C409.182266,68 402,60.885906 402,50.1258389 Z M430.285714,50.3036913 C430.285714,44.0788591 426.206897,39.3657718 420.26601,39.3657718 C414.679803,39.3657718 410.246305,43.545302 410.157635,50.2147651 C410.157635,56.3506711 414.236453,60.7080537 420.08867,60.7080537 C425.763547,60.7969799 430.197044,56.5285235 430.285714,50.3036913 Z" id="Shape" fill="#404041"></path>
                            <polygon id="Path" fill="#404041" points="445.173913 33 453 33 452.826087 67 445 67"></polygon>
                            <path d="M458,49.955314 C458,39.6828093 465.28765,31.9114362 476.08742,32.0007623 C486.623781,32.0007623 494.087036,39.4148309 493.999233,50.1339663 C493.999233,60.7637756 486.448175,68.0885181 475.911814,67.9991919 C465.112044,67.9098658 458,60.1384927 458,49.955314 Z M486.00916,50.0446402 C486.00916,43.6131589 481.706812,39.2361787 476.08742,39.2361787 C470.116815,39.2361787 466.077877,43.8811373 466.077877,50.0446402 C466.077877,56.0294908 470.116815,60.7637756 475.999617,60.7637756 C481.531206,60.6744494 486.00916,56.2974691 486.00916,50.0446402 Z" id="Shape" fill="#404041"></path>
                            <path d="M443,22.4083333 C443,19.475 445.454545,17 448.454545,17 C451.545455,17 454,19.475 454,22.5 C454,25.525 451.454545,28 448.454545,28 C445.363636,27.9083333 443,25.4333333 443,22.4083333 Z" id="Path" fill="#F05A5D"></path>
                        </g>
                    </g>
                </g>
            </g>
        </g>
    </g>
</svg>