<?xml version="1.0" encoding="UTF-8"?>
<svg width="18px" height="18px" viewBox="0 0 18 18" version="1.1" xmlns="http://www.w3.org/2000/svg" xmlns:xlink="http://www.w3.org/1999/xlink">
    <!-- Generator: Sketch 52.6 (67491) - http://www.bohemiancoding.com/sketch -->
    <title>close</title>
    <desc>Created with Sketch.</desc>
    <g id="v2" stroke="none" stroke-width="1" fill="none" fill-rule="evenodd">
        <g id="Landing-Mobile" transform="translate(-23.000000, -25.000000)" fill="#000000">
            <g id="menu">
                <path d="M30.5857864,34 L23.5147186,26.9289322 C23.1241943,26.5384079 23.1241943,25.9052429 23.5147186,25.5147186 C23.9052429,25.1241943 24.5384079,25.1241943 24.9289322,25.5147186 L32,32.5857864 L39.0710678,25.5147186 C39.4615921,25.1241943 40.0947571,25.1241943 40.4852814,25.5147186 C40.8758057,25.9052429 40.8758057,26.5384079 40.4852814,26.9289322 L33.4142136,34 L40.4852814,41.0710678 C40.8758057,41.4615921 40.8758057,42.0947571 40.4852814,42.4852814 C40.0947571,42.8758057 39.4615921,42.8758057 39.0710678,42.4852814 L32,35.4142136 L24.9289322,42.4852814 C24.5384079,42.8758057 23.9052429,42.8758057 23.5147186,42.4852814 C23.1241943,42.0947571 23.1241943,41.4615921 23.5147186,41.0710678 L30.5857864,34 Z" id="close"></path>
            </g>
        </g>
    </g>
</svg>