<?xml version="1.0" encoding="UTF-8"?>
<svg width="85px" height="74px" viewBox="0 0 85 74" version="1.1" xmlns="http://www.w3.org/2000/svg" xmlns:xlink="http://www.w3.org/1999/xlink">
    <!-- Generator: Sketch 54.1 (76490) - https://sketchapp.com -->
    <title>quote-close</title>
    <desc>Created with Sketch.</desc>
    <g id="Symbols" stroke="none" stroke-width="1" fill="none" fill-rule="evenodd" fill-opacity="0.06">
        <g id="quote" transform="translate(-332.000000, -2.000000)" fill="#000000" fill-rule="nonzero">
            <path d="M332,2 L364,2 L364,33.8372093 C364,39.5736721 363.375382,44.9754269 362.126126,50.0426357 C360.876871,55.1098445 358.954968,59.5555364 356.36036,63.379845 C353.765753,67.2041535 350.498518,70.2635544 346.558559,72.5581395 C342.618599,74.8527247 337.86189,76 332.288288,76 L332.288288,61.6589147 C335.555572,61.6589147 338.246236,60.8462614 340.36036,59.2209302 C342.474485,57.5955991 344.204197,55.4444578 345.54955,52.7674419 C346.894902,50.0904259 347.807805,47.0788281 348.288288,43.7325581 C348.768771,40.3862882 349.009009,37.0878716 349.009009,33.8372093 L332,33.8372093 L332,2 Z M385,2 L417,2 L417,33.8372093 C417,39.5736721 416.375382,44.9754269 415.126126,50.0426357 C413.876871,55.1098445 411.954968,59.5555364 409.36036,63.379845 C406.765753,67.2041535 403.498518,70.2635544 399.558559,72.5581395 C395.618599,74.8527247 390.86189,76 385.288288,76 L385.288288,61.6589147 C388.555572,61.6589147 391.246236,60.8462614 393.36036,59.2209302 C395.474485,57.5955991 397.204197,55.4444578 398.54955,52.7674419 C399.894902,50.0904259 400.807805,47.0788281 401.288288,43.7325581 C401.768771,40.3862882 402.009009,37.0878716 402.009009,33.8372093 L385,33.8372093 L385,2 Z" id="quote-close"></path>
        </g>
    </g>
</svg>