<?xml version="1.0" encoding="UTF-8"?>
<svg width="51px" height="44px" viewBox="0 0 51 44" version="1.1" xmlns="http://www.w3.org/2000/svg" xmlns:xlink="http://www.w3.org/1999/xlink">
    <!-- Generator: Sketch 54.1 (76490) - https://sketchapp.com -->
    <title>quote-close-small</title>
    <desc>Created with Sketch.</desc>
    <g id="v2" stroke="none" stroke-width="1" fill="none" fill-rule="evenodd" fill-opacity="0.06">
        <g id="Project-Mobile" transform="translate(-294.000000, -711.000000)" fill="#000000" fill-rule="nonzero">
            <g id="body" transform="translate(0.000000, 247.000000)">
                <g id="container" transform="translate(30.000000, 50.000000)">
                    <g id="quote" transform="translate(0.000000, 296.000000)">
                        <path d="M264,118 L283,118 L283,136.930233 C283,140.341102 282.629133,143.552957 281.887387,146.565891 C281.145642,149.578826 280.004512,152.222211 278.463964,154.496124 C276.923416,156.770037 274.983495,158.58914 272.644144,159.953488 C270.304793,161.317836 267.480497,162 264.171171,162 L264.171171,153.472868 C266.111121,153.472868 267.708702,152.989669 268.963964,152.023256 C270.219225,151.056843 271.246242,149.777786 272.045045,148.186047 C272.843848,146.594307 273.385884,144.803628 273.671171,142.813953 C273.956458,140.824279 274.099099,138.863059 274.099099,136.930233 L264,136.930233 L264,118 Z M296,118 L315,118 L315,136.930233 C315,140.341102 314.629133,143.552957 313.887387,146.565891 C313.145642,149.578826 312.004512,152.222211 310.463964,154.496124 C308.923416,156.770037 306.983495,158.58914 304.644144,159.953488 C302.304793,161.317836 299.480497,162 296.171171,162 L296.171171,153.472868 C298.111121,153.472868 299.708702,152.989669 300.963964,152.023256 C302.219225,151.056843 303.246242,149.777786 304.045045,148.186047 C304.843848,146.594307 305.385884,144.803628 305.671171,142.813953 C305.956458,140.824279 306.099099,138.863059 306.099099,136.930233 L296,136.930233 L296,118 Z" id="quote-close-small"></path>
                    </g>
                </g>
            </g>
        </g>
    </g>
</svg>