<?xml version="1.0" encoding="UTF-8"?>
<svg width="50px" height="44px" viewBox="0 0 50 44" version="1.1" xmlns="http://www.w3.org/2000/svg" xmlns:xlink="http://www.w3.org/1999/xlink">
    <!-- Generator: Sketch 54.1 (76490) - https://sketchapp.com -->
    <title>quote-open-small</title>
    <desc>Created with Sketch.</desc>
    <g id="v2" stroke="none" stroke-width="1" fill="none" fill-rule="evenodd" fill-opacity="0.06">
        <g id="Project-Mobile" transform="translate(-30.000000, -593.000000)" fill="#000000" fill-rule="nonzero">
            <g id="body" transform="translate(0.000000, 247.000000)">
                <g id="container" transform="translate(30.000000, 50.000000)">
                    <g id="quote" transform="translate(0.000000, 296.000000)">
                        <path d="M19,44 L0,44 L0,25.0697674 C0,21.6588977 0.370867162,18.4470435 1.11261261,15.4341085 C1.85435806,12.4211736 2.99548779,9.77778915 4.53603604,7.50387597 C6.07658428,5.22996279 8.04503306,3.41085953 10.4414414,2.04651163 C12.8378498,0.682163721 15.6336177,0 18.8288288,0 L18.8288288,8.52713178 C16.8888792,8.52713178 15.2912976,9.01033109 14.036036,9.97674419 C12.7807745,10.9431573 11.7537577,12.2222143 10.954955,13.8139535 C10.1561522,15.4056927 9.61411554,17.1963725 9.32882883,19.1860465 C9.04354212,21.1757205 8.9009009,23.1369412 8.9009009,25.0697674 L19,25.0697674 L19,44 Z M50,44 L31,44 L31,25.0697674 C31,21.6588977 31.3708672,18.4470435 32.1126126,15.4341085 C32.8543581,12.4211736 33.9954878,9.77778915 35.536036,7.50387597 C37.0765843,5.22996279 39.0450331,3.41085953 41.4414414,2.04651163 C43.8378498,0.682163721 46.6336177,0 49.8288288,0 L49.8288288,8.52713178 C47.8888792,8.52713178 46.2912976,9.01033109 45.036036,9.97674419 C43.7807745,10.9431573 42.7537577,12.2222143 41.954955,13.8139535 C41.1561522,15.4056927 40.6141155,17.1963725 40.3288288,19.1860465 C40.0435421,21.1757205 39.9009009,23.1369412 39.9009009,25.0697674 L50,25.0697674 L50,44 Z" id="quote-open-small"></path>
                    </g>
                </g>
            </g>
        </g>
    </g>
</svg>