<?xml version="1.0" encoding="UTF-8"?>
<svg width="84px" height="74px" viewBox="0 0 84 74" version="1.1" xmlns="http://www.w3.org/2000/svg" xmlns:xlink="http://www.w3.org/1999/xlink">
    <!-- Generator: Sketch 54.1 (76490) - https://sketchapp.com -->
    <title>quote-open</title>
    <desc>Created with Sketch.</desc>
    <g id="Symbols" stroke="none" stroke-width="1" fill="none" fill-rule="evenodd" fill-opacity="0.06">
        <g id="quote" fill="#000000" fill-rule="nonzero">
            <path d="M32,74 L-4.54747351e-13,74 L-4.54747351e-13,42.1627907 C-4.54747351e-13,36.4263279 0.624618378,31.0245731 1.87387387,25.9573643 C3.12312937,20.8901555 5.04503207,16.4444636 7.63963964,12.620155 C10.2342472,8.79584651 13.5495294,5.73644558 17.5855856,3.44186047 C21.6216418,1.14727535 26.3303034,0 31.7117117,0 L31.7117117,14.3410853 C28.4444281,14.3410853 25.7537643,15.1537386 23.6396396,16.7790698 C21.525515,18.4044009 19.7958025,20.5555422 18.4504505,23.2325581 C17.1050984,25.9095741 16.1921946,28.9211719 15.7117117,32.2674419 C15.2312288,35.6137118 14.990991,38.9121284 14.990991,42.1627907 L32,42.1627907 L32,74 Z M84,74 L52,74 L52,42.1627907 C52,36.4263279 52.6246184,31.0245731 53.8738739,25.9573643 C55.1231294,20.8901555 57.0450321,16.4444636 59.6396396,12.620155 C62.2342472,8.79584651 65.5495294,5.73644558 69.5855856,3.44186047 C73.6216418,1.14727535 78.3303034,0 83.7117117,0 L83.7117117,14.3410853 C80.4444281,14.3410853 77.7537643,15.1537386 75.6396396,16.7790698 C73.525515,18.4044009 71.7958025,20.5555422 70.4504505,23.2325581 C69.1050984,25.9095741 68.1921946,28.9211719 67.7117117,32.2674419 C67.2312288,35.6137118 66.990991,38.9121284 66.990991,42.1627907 L84,42.1627907 L84,74 Z" id="quote-open"></path>
        </g>
    </g>
</svg>