<?xml version="1.0" encoding="UTF-8"?>
<svg width="40px" height="33px" viewBox="0 0 40 33" version="1.1" xmlns="http://www.w3.org/2000/svg" xmlns:xlink="http://www.w3.org/1999/xlink">
    <!-- Generator: Sketch 50.2 (55047) - http://www.bohemiancoding.com/sketch -->
    <title>social-twitter</title>
    <desc>Created with Sketch.</desc>
    <defs></defs>
    <g id="Landing" stroke="none" stroke-width="1" fill="none" fill-rule="evenodd">
        <g id="MVP" transform="translate(-534.000000, -553.000000)" fill="#FFFFFF" fill-rule="nonzero">
            <g id="socials" transform="translate(354.000000, 549.000000)">
                <path d="M192.565026,36.5 C207.659064,36.5 215.918367,23.9926181 215.918367,13.1646161 C215.918367,12.8127461 215.918367,12.460876 215.902361,12.1090059 C217.503001,10.9574311 218.895558,9.5019685 220,7.85457677 C218.527411,8.51033465 216.942777,8.9421752 215.278111,9.15009843 C216.97479,8.14247047 218.271309,6.52706693 218.895558,4.60777559 C217.310924,5.55142717 215.55022,6.22317913 213.677471,6.59104331 C212.172869,4.99163386 210.044018,4 207.691076,4 C203.161265,4 199.479792,7.67864173 199.479792,12.2049705 C199.479792,12.8447343 199.559824,13.4685039 199.687875,14.0762795 C192.869148,13.7404035 186.818727,10.4616142 182.769108,5.50344488 C182.064826,6.71899606 181.664666,8.12647638 181.664666,9.62992126 C181.664666,12.4768701 183.121248,14.9879429 185.314126,16.4593996 C183.969588,16.4114173 182.705082,16.0435531 181.60064,15.4357776 C181.60064,15.4677657 181.60064,15.4997539 181.60064,15.5477362 C181.60064,19.5142717 184.433774,22.8410433 188.179272,23.5927657 C187.490996,23.7846949 186.770708,23.8806594 186.018407,23.8806594 C185.490196,23.8806594 184.977991,23.8326772 184.481793,23.7367126 C185.522209,26.9995079 188.563425,29.3666339 192.14886,29.4306102 C189.331733,31.6377953 185.794318,32.949311 181.952781,32.949311 C181.296519,32.949311 180.640256,32.9173228 180,32.8373524 C183.617447,35.140502 187.939176,36.5 192.565026,36.5" id="social-twitter"></path>
            </g>
        </g>
    </g>
</svg>