<?xml version="1.0" encoding="UTF-8"?>
<svg width="54px" height="26px" viewBox="0 0 54 26" version="1.1" xmlns="http://www.w3.org/2000/svg" xmlns:xlink="http://www.w3.org/1999/xlink">
    <!-- Generator: Sketch 50.2 (55047) - http://www.bohemiancoding.com/sketch -->
    <title>social-soundcloud</title>
    <desc>Created with Sketch.</desc>
    <defs></defs>
    <g id="Landing" stroke="none" stroke-width="1" fill="none" fill-rule="evenodd">
        <g id="MVP" transform="translate(-797.000000, -555.000000)">
            <g id="socials" transform="translate(354.000000, 549.000000)">
                <g id="social-soundcloud" transform="translate(443.000000, 0.000000)">
                    <rect id="bounds" x="0" y="0" width="54" height="40"></rect>
                    <path d="M22.7541346,9.82870509 C22.7688043,9.27830577 23.2339594,8.83211896 23.7826906,8.83211896 L23.6511318,8.83211896 C24.2045179,8.83211896 24.6674976,9.27606302 24.685388,9.82870509 L25.0315238,20.5209849 L24.6860444,31.0013935 C24.6678641,31.5529086 24.199863,32 23.6511318,32 L23.7826906,32 C23.2293045,32 22.7684836,31.550009 22.7535942,31.0013935 L22.4691548,20.5209849 L22.7541346,9.82870509 Z M18.2564263,12.6487431 C18.2732374,12.0945908 18.7401285,11.6453617 19.2888597,11.6453617 L19.1573009,11.6453617 C19.710687,11.6453617 20.1755543,12.0866294 20.1962664,12.6487431 L20.5376928,21.9148653 L20.1969607,30.9961281 C20.1761585,31.5505513 19.7060321,32 19.1573009,32 L19.2888597,32 C18.7354736,32 18.2730769,31.5536415 18.2558547,30.9961281 L17.9753238,21.9148653 L18.2564263,12.6487431 Z M13.7631626,12.3150862 C13.7796604,11.762418 14.2462975,11.3143919 14.7950287,11.3143919 L14.6634699,11.3143919 C15.216856,11.3143919 15.6817234,11.7628347 15.7017465,12.3150862 L16.0438619,21.7508794 L15.7024354,30.9986101 C15.6820167,31.5516625 15.2122011,32 14.6634699,32 L14.7950287,32 C14.2416426,32 13.779648,31.5596081 13.7625954,30.9986101 L13.4814929,21.7508794 L13.7631626,12.3150862 Z M9.2597466,17.4384076 C9.28153808,16.8894449 9.75246654,16.4444227 10.3011977,16.4444227 L10.169639,16.4444227 C10.7230251,16.4444227 11.1930616,16.8888649 11.2195575,17.4384076 L11.5500309,24.2926613 L11.221102,30.9924001 C11.1937811,31.5488821 10.7183702,32 10.169639,32 L10.3011977,32 C9.74781164,32 9.28110718,31.552307 9.25847494,30.9924001 L8.98766192,24.2926613 L9.2597466,17.4384076 Z M4.7690251,15.6176697 C4.78909928,15.0689303 5.25863558,14.6240892 5.80736678,14.6240892 L5.67580801,14.6240892 C6.22919411,14.6240892 6.69761371,15.0699652 6.72194978,15.6176697 L7.05619996,23.140263 L6.72269531,30.511325 C6.69790152,31.0593132 6.22453921,31.5035454 5.67580801,31.5035454 L5.80736678,31.5035454 C5.25398068,31.5035454 4.78862278,31.053899 4.76841129,30.511325 L4.49383096,23.140263 L4.7690251,15.6176697 Z M0.251473287,20.4212311 C0.284648129,19.8700063 0.764804619,19.4231503 1.31353582,19.4231503 L1.18197705,19.4231503 C1.73536315,19.4231503 2.2162332,19.8644956 2.25693012,20.4212311 L2.562369,24.5996481 L2.25873044,28.6788633 C2.21744206,29.2335497 1.73070825,29.6832119 1.18197705,29.6832119 L1.31353582,29.6832119 C0.760149723,29.6832119 0.283894408,29.2320795 0.249991046,28.6788633 L-1.77635684e-15,24.5996481 L0.251473287,20.4212311 Z M27,32 L27,7.55484377 C27,7.23395119 27.08557,7.14221078 27.6514983,6.86669507 C28.5108149,6.44834664 30.181114,6 32,6 C38.7143742,6 43.9975794,11.461472 44.2943861,17.8249008 C45.0800695,17.5455335 45.9981177,17.2736135 46.8796525,17.2736135 C51.0217881,17.2736135 54,20.6898527 54,24.5 C54,28.0202685 51.8058078,32 46.5,32 L27,32 Z" id="logo" fill="#FFFFFF"></path>
                </g>
            </g>
        </g>
    </g>
</svg>